<svg width="24" height="24" viewBox="0 0 24 24" xmlns="http://www.w3.org/2000/svg">
<g id="Icons">
<path id="image 20 (Traced)" fill-rule="evenodd" clip-rule="evenodd" d="M7.51118 0.105991C4.30054 0.301058 2.68961 1.03566 1.93187 2.64997C1.34416 3.90212 1.16048 5.14927 1.06571 8.53297L1 10.8799L2.50271 10.8126C6.9147 10.615 8.5266 10.1871 9.84134 8.86453C11.1119 7.58648 11.5411 6.16968 11.7564 2.54222C11.809 1.65489 11.8525 0.71984 11.853 0.464444L11.8539 0L10.3183 0.0143733C9.47378 0.0221956 8.21052 0.0634578 7.51118 0.105991ZM12.1864 1.54C12.3509 5.36624 12.6533 6.82948 13.5522 8.1488C14.3306 9.29123 15.5943 10.0677 17.2161 10.4001C18.1364 10.5887 19.5694 10.7269 21.4974 10.8129L23 10.8799L22.9335 8.57531C22.8364 5.20686 22.6425 3.8807 22.0672 2.64997C21.5064 1.45024 20.4632 0.739004 18.7421 0.3828C17.7713 0.181769 15.2419 0.00371556 13.3276 0.00146667L12.1202 0L12.1864 1.54ZM1.03315 12.3313C1.0352 14.1332 1.20055 16.658 1.37828 17.6C1.83681 20.0309 2.88762 21.123 5.24245 21.6163C6.19362 21.8155 8.7526 21.9937 10.7201 21.9977L11.8774 22L11.8129 20.5578C11.6111 16.0518 11.1994 14.5015 9.84134 13.1355C8.53411 11.8205 6.85698 11.3711 2.56735 11.1866L1.03178 11.1205L1.03315 12.3313ZM20.7747 11.2115C19.3102 11.2813 17.6768 11.4803 16.8501 11.6894C15.6812 11.9853 14.871 12.4232 14.145 13.1511C12.8073 14.4928 12.3719 16.1158 12.1847 20.46L12.1183 22L13.3266 21.9986C13.9913 21.9978 15.2589 21.955 16.1437 21.9035C20.3057 21.6609 21.7009 20.8777 22.4171 18.3818C22.7464 17.234 22.8584 16.1701 22.9344 13.4682L22.9995 11.1467L22.1797 11.1651C21.7286 11.1753 21.0965 11.1961 20.7747 11.2115Z" fill="white"/>
</g>
</svg>
