<svg width="18" height="17" viewBox="0 0 18 17" fill="none" xmlns="http://www.w3.org/2000/svg">
<path d="M6.75 4.64032e-07C6.05177 -0.00036558 5.37061 0.215838 4.8004 0.618814C4.23018 1.02179 3.79899 1.5917 3.56625 2.25H0V4.5H3.56625C3.79868 5.15873 4.22971 5.72914 4.79992 6.13261C5.37014 6.53609 6.05147 6.75276 6.75 6.75276C7.44853 6.75276 8.12986 6.53609 8.70008 6.13261C9.27029 5.72914 9.70132 5.15873 9.93375 4.5H18V2.25H9.93375C9.70101 1.5917 9.26982 1.02179 8.6996 0.618814C8.12939 0.215838 7.44823 -0.00036558 6.75 4.64032e-07ZM5.625 3.375C5.625 3.07663 5.74353 2.79048 5.9545 2.57951C6.16548 2.36853 6.45163 2.25 6.75 2.25C7.04837 2.25 7.33452 2.36853 7.5455 2.57951C7.75647 2.79048 7.875 3.07663 7.875 3.375C7.875 3.67337 7.75647 3.95952 7.5455 4.1705C7.33452 4.38147 7.04837 4.5 6.75 4.5C6.45163 4.5 6.16548 4.38147 5.9545 4.1705C5.74353 3.95952 5.625 3.67337 5.625 3.375ZM11.25 10.125C10.5518 10.1246 9.87061 10.3408 9.3004 10.7438C8.73018 11.1468 8.29899 11.7167 8.06625 12.375H0V14.625H8.06625C8.29868 15.2837 8.72971 15.8541 9.29992 16.2576C9.87014 16.6611 10.5515 16.8778 11.25 16.8778C11.9485 16.8778 12.6299 16.6611 13.2001 16.2576C13.7703 15.8541 14.2013 15.2837 14.4338 14.625H18V12.375H14.4338C14.201 11.7167 13.7698 11.1468 13.1996 10.7438C12.6294 10.3408 11.9482 10.1246 11.25 10.125ZM10.125 13.5C10.125 13.2016 10.2435 12.9155 10.4545 12.7045C10.6655 12.4935 10.9516 12.375 11.25 12.375C11.5484 12.375 11.8345 12.4935 12.0455 12.7045C12.2565 12.9155 12.375 13.2016 12.375 13.5C12.375 13.7984 12.2565 14.0845 12.0455 14.2955C11.8345 14.5065 11.5484 14.625 11.25 14.625C10.9516 14.625 10.6655 14.5065 10.4545 14.2955C10.2435 14.0845 10.125 13.7984 10.125 13.5Z" fill="#4968D4"/>
</svg>
