<svg width="24" height="24" viewBox="0 0 24 24" fill="none" xmlns="http://www.w3.org/2000/svg">
<g id="Icons">
<path id="Vector" d="M12 5.95C12.7578 5.95 13.4845 6.23973 14.0203 6.75546C14.5561 7.27118 14.8571 7.97065 14.8571 8.7C14.8571 9.06114 14.7832 9.41873 14.6397 9.75238C14.4961 10.086 14.2856 10.3892 14.0203 10.6445C13.755 10.8999 13.44 11.1025 13.0934 11.2407C12.7467 11.3789 12.3752 11.45 12 11.45C11.2422 11.45 10.5155 11.1603 9.9797 10.6445C9.44388 10.1288 9.14286 9.42935 9.14286 8.7C9.14286 7.97065 9.44388 7.27118 9.9797 6.75546C10.5155 6.23973 11.2422 5.95 12 5.95ZM12 1C14.1217 1 16.1566 1.81125 17.6569 3.25528C19.1571 4.69931 20 6.65783 20 8.7C20 14.475 12 23 12 23C12 23 4 14.475 4 8.7C4 6.65783 4.84285 4.69931 6.34315 3.25528C7.84344 1.81125 9.87827 1 12 1ZM12 3.2C10.4845 3.2 9.03103 3.77946 7.95939 4.81091C6.88775 5.84236 6.28571 7.24131 6.28571 8.7C6.28571 9.8 6.28571 12 12 19.381C17.7143 12 17.7143 9.8 17.7143 8.7C17.7143 7.24131 17.1122 5.84236 16.0406 4.81091C14.969 3.77946 13.5155 3.2 12 3.2Z" fill="#4968D4"/>
</g>
</svg>
