<svg width="21" height="18" viewBox="0 0 21 18" fill="none" xmlns="http://www.w3.org/2000/svg">
<g id="Group">
<g id="Group_2">
<path id="Vector" d="M1.91511 7.80784C8.19911 5.04334 16.3311 1.67284 17.4536 1.20634C20.3981 -0.0146592 21.3016 0.219341 20.8511 2.92334C20.5276 4.86684 19.5941 11.3013 18.8501 15.3063C18.4086 17.6813 17.4181 17.9628 15.8606 16.9353C15.1116 16.4408 11.3311 13.9408 10.5106 13.3538C9.76161 12.8188 8.72861 12.1753 10.0241 10.9078C10.4851 10.4563 13.5071 7.57084 15.8616 5.32484C16.1701 5.02984 15.7826 4.54534 15.4266 4.78184C12.2531 6.88634 7.85311 9.80733 7.29311 10.1878C6.44711 10.7623 5.63461 11.0258 4.17611 10.6068C3.07411 10.2903 1.99761 9.91283 1.57861 9.76884C-0.0348841 9.21484 0.348116 8.49733 1.91511 7.80784Z" fill="white"/>
</g>
</g>
</svg>
