<svg width="25" height="24" viewBox="0 0 25 24" fill="none" xmlns="http://www.w3.org/2000/svg">
<g id="Icons">
<path id="image 19 (Traced)" fill-rule="evenodd" clip-rule="evenodd" d="M17.6885 0.574773C15.7088 1.11121 14.2622 2.78747 14.0356 4.80739C13.7633 7.23628 15.2853 9.45973 17.6732 10.1215C18.7053 10.4075 20.224 10.2726 21.1277 9.81465C21.6231 9.56363 22.3007 9.03752 22.6016 8.67028L22.8603 8.35459L22.26 7.88581C21.9298 7.62802 21.6482 7.41709 21.6342 7.41709C21.6202 7.41709 21.4459 7.56991 21.247 7.7567C19.6029 9.30029 17.0624 8.87772 16.1318 6.90593C15.4497 5.4604 15.7423 3.82239 16.8714 2.76632C17.2754 2.3884 17.6474 2.18651 18.2088 2.04024C18.9559 1.84569 19.9899 1.95165 20.655 2.29098L20.9376 2.43518V3.25262V4.07013H21.7566H22.5755V2.90034V1.73054L22.3085 1.50736C21.9707 1.22508 21.0319 0.76854 20.4748 0.615577C20.2237 0.546644 19.6657 0.485687 19.1217 0.467742C18.3614 0.442675 18.1053 0.461831 17.6885 0.574773ZM3.13468 1.43387V2.21863L3.33051 2.22368C3.43818 2.22639 3.76668 2.22589 4.06043 2.2224C4.35418 2.21891 4.64074 2.2464 4.69721 2.28343C4.75368 2.32046 5.42969 4.10759 6.19942 6.25477L7.59887 10.1587H8.37024H9.14154L10.6175 6.20649L12.0935 2.25423L12.8838 2.23408L13.674 2.21393V1.43295V0.651967L12.2676 0.653177L10.8612 0.654317L9.68816 4.0769C9.04305 5.95931 8.49543 7.51159 8.47136 7.52654C8.44722 7.54143 7.89775 6.00873 7.25022 4.12062L6.07302 0.687573L4.60385 0.668346L3.13468 0.649047V1.43387ZM3.79089 12.9168L3.81119 13.6481L4.57672 13.6684L5.34224 13.6886V16.8551V20.0216H4.55649H3.77074L3.79096 20.7871L3.81119 21.5526L7.42519 21.5711L11.0392 21.5895V20.8056V20.0216H9.00965H6.98011V18.1494C6.98011 16.0768 7.02384 15.7671 7.4222 15.0197C7.65706 14.5791 8.12513 14.1126 8.54677 13.8989C8.76917 13.7861 9.42468 13.6125 9.62799 13.6125C9.68061 13.6125 9.69428 13.8393 9.67093 14.3246L9.6366 15.0368H10.4447H11.2528V13.6125V12.1883L10.3449 12.1891C9.32021 12.1901 8.9143 12.2736 8.27318 12.6153C7.86749 12.8315 7.23085 13.4229 6.96965 13.8262C6.85649 14.0008 6.85343 13.9941 6.80935 13.4701C6.78464 13.1763 6.75687 12.7758 6.74768 12.5799L6.73087 12.2239L5.25074 12.2047L3.7706 12.1854L3.79089 12.9168ZM13.0331 13.0072V13.8262H13.7452H14.4574V16.3392C14.4574 19.0382 14.4819 19.2723 14.8485 20.0752C15.0612 20.5408 15.6294 21.1502 16.0766 21.3922C16.6745 21.7158 17.1747 21.8204 17.9738 21.7892C18.5716 21.7658 18.7665 21.7278 19.1167 21.5659C19.6728 21.309 20.067 20.9779 20.409 20.4806L20.6884 20.0744L20.8092 20.8135C20.8756 21.22 20.9317 21.5614 20.9338 21.5721C20.9359 21.5828 21.5065 21.5828 22.2016 21.5721L23.4657 21.5526L23.4859 20.7871L23.5061 20.0216H22.8741H22.242L22.1953 18.5795C22.1696 17.7865 22.1485 16.024 22.1485 14.6629L22.1482 12.1883H20.5104H18.8725V13.0072V13.8262H19.6914H20.5104V15.7748C20.5104 16.8465 20.4779 17.896 20.4382 18.107C20.2815 18.9393 19.7361 19.6857 19.0047 20.069C18.6738 20.2423 18.543 20.2688 18.018 20.269C17.2916 20.2691 16.9239 20.11 16.5921 19.6519C16.1506 19.0426 16.1407 18.9543 16.1121 15.4106L16.0861 12.1883H14.5596H13.0331V13.0072ZM0.54876 20.0015C0.530316 20.0321 0.510519 20.4016 0.50468 20.8227L0.494141 21.5882H1.35388H2.21362L2.19347 20.7871L2.17332 19.986L1.37781 19.9659C0.940283 19.9549 0.567204 19.9709 0.54876 20.0015Z" fill="white"/>
</g>
</svg>
