<svg xmlns="http://www.w3.org/2000/svg" width="113" height="24" viewBox="0 0 113 24" fill="none">
  <path d="M104.595 23.9777C103.021 23.9777 101.599 23.6544 100.327 23.0078C99.0559 22.3397 98.0429 21.3591 97.2886 20.0659C96.5558 18.7513 96.1895 17.1348 96.1895 15.2167V14.5701C96.1895 12.7597 96.5558 11.2295 97.2886 9.97951C98.0429 8.70793 99.0559 7.74886 100.327 7.10229C101.599 6.45573 103.021 6.13245 104.595 6.13245C106.19 6.13245 107.612 6.45573 108.862 7.10229C110.134 7.74886 111.136 8.70793 111.869 9.97951C112.623 11.2295 113 12.7597 113 14.5701V15.2167C113 17.1348 112.623 18.7513 111.869 20.0659C111.136 21.3591 110.134 22.3397 108.862 23.0078C107.612 23.6544 106.19 23.9777 104.595 23.9777ZM104.595 20.8741C105.414 20.8741 106.19 20.6802 106.922 20.2922C107.655 19.9043 108.248 19.3008 108.701 18.4819C109.153 17.6413 109.379 16.5529 109.379 15.2167V14.5701C109.379 13.3417 109.153 12.3395 108.701 11.5636C108.248 10.7662 107.655 10.1843 106.922 9.81787C106.19 9.42993 105.414 9.23596 104.595 9.23596C103.776 9.23596 103 9.42993 102.267 9.81787C101.534 10.1843 100.942 10.7662 100.489 11.5636C100.037 12.3395 99.8102 13.3417 99.8102 14.5701V15.2167C99.8102 16.5529 100.037 17.6413 100.489 18.4819C100.942 19.3008 101.534 19.9043 102.267 20.2922C103 20.6802 103.776 20.8741 104.595 20.8741Z" fill="#1D2337"/>
  <path d="M88.7691 23.622V6.488H92.3252V23.622H88.7691ZM90.5472 4.5483C89.879 4.5483 89.3295 4.34355 88.8984 3.93406C88.4889 3.50302 88.2842 2.95344 88.2842 2.28532C88.2842 1.6172 88.4889 1.0784 88.8984 0.668904C89.3295 0.237861 89.879 0.0223389 90.5472 0.0223389C91.2153 0.0223389 91.7541 0.237861 92.1636 0.668904C92.5946 1.0784 92.8101 1.6172 92.8101 2.28532C92.8101 2.95344 92.5946 3.50302 92.1636 3.93406C91.7541 4.34355 91.2153 4.5483 90.5472 4.5483Z" fill="#1D2337"/>
  <path d="M83.4284 23.7836C82.1999 23.7836 81.187 23.6112 80.3895 23.2664C79.6137 22.9 79.0318 22.3073 78.6438 21.4883C78.2774 20.6478 78.0942 19.5378 78.0942 18.1585V0.992188H81.6503V17.8999C81.6503 18.9559 81.8228 19.6887 82.1676 20.0982C82.5124 20.4861 83.1482 20.6801 84.075 20.6801C84.312 20.6801 84.5168 20.6801 84.6892 20.6801C84.8616 20.6586 85.034 20.637 85.2065 20.6155V23.6866C85.0987 23.7082 84.9263 23.7298 84.6892 23.7513C84.4737 23.7729 84.2474 23.7836 84.0103 23.7836C83.7948 23.7836 83.6008 23.7836 83.4284 23.7836Z" fill="#1D2337"/>
  <path d="M72.9152 23.7836C71.6867 23.7836 70.6738 23.6112 69.8764 23.2664C69.1005 22.9 68.5186 22.3073 68.1306 21.4883C67.7642 20.6478 67.5811 19.5378 67.5811 18.1585V0.992188H71.1372V17.8999C71.1372 18.9559 71.3096 19.6887 71.6544 20.0982C71.9993 20.4861 72.635 20.6801 73.5618 20.6801C73.7989 20.6801 74.0036 20.6801 74.176 20.6801C74.3484 20.6586 74.5209 20.637 74.6933 20.6155V23.6866C74.5855 23.7082 74.4131 23.7298 74.176 23.7513C73.9605 23.7729 73.7342 23.7836 73.4971 23.7836C73.2816 23.7836 73.0876 23.7836 72.9152 23.7836Z" fill="#1D2337"/>
  <path d="M56.1021 23.9777C54.5935 23.9777 53.2034 23.6652 51.9318 23.0401C50.6602 22.3936 49.6365 21.4237 48.8606 20.1306C48.0847 18.8375 47.6968 17.1995 47.6968 15.2167V14.5701C47.6968 12.6735 48.0632 11.1002 48.7959 9.8502C49.5503 8.60017 50.5417 7.67343 51.7701 7.06997C52.9986 6.44495 54.3349 6.13245 55.7788 6.13245C58.3867 6.13245 60.3802 6.83289 61.7596 8.23378C63.1605 9.63468 63.8609 11.639 63.8609 14.2468V16.0572H51.3175C51.3606 17.221 51.6085 18.1586 52.0611 18.8698C52.5137 19.581 53.0956 20.0983 53.8068 20.4216C54.518 20.7233 55.2831 20.8741 56.1021 20.8741C57.3306 20.8741 58.225 20.6802 58.7854 20.2922C59.3673 19.9043 59.766 19.3978 59.9815 18.7728H63.5376C63.1928 20.4754 62.3415 21.7686 60.9837 22.6522C59.6475 23.5358 58.0203 23.9777 56.1021 23.9777ZM55.9405 9.23596C55.1431 9.23596 54.3995 9.37605 53.7098 9.65623C53.0202 9.93641 52.4598 10.3782 52.0288 10.9817C51.5977 11.5852 51.3606 12.3934 51.3175 13.4063H60.3048C60.2833 12.3287 60.0785 11.4882 59.6906 10.8847C59.3026 10.2812 58.7854 9.86098 58.1388 9.6239C57.4923 9.36527 56.7595 9.23596 55.9405 9.23596Z" fill="#1D2337"/>
  <path d="M25.5421 23.622L20.8545 6.48804H24.6046L27.7404 19.0961L31.6845 6.48804H34.9173L39.12 19.0961L42.2558 6.48804H45.7473L41.0597 23.622H37.5036L33.2362 11.014L29.0982 23.622H25.5421Z" fill="#1D2337"/>
  <path d="M0 23.622V0.992188H7.27387C9.5584 0.992188 11.5089 1.40168 13.1253 2.22066C14.7417 3.01809 15.9702 4.22502 16.8107 5.84143C17.6728 7.43629 18.1038 9.42987 18.1038 11.8222V12.4687C18.1038 14.8826 17.662 16.9193 16.7784 18.5788C15.8947 20.2383 14.6124 21.4991 12.9313 22.3612C11.2718 23.2017 9.27822 23.622 6.95058 23.622H0ZM3.8794 20.2598H6.6273C8.1144 20.2598 9.40753 20.012 10.5067 19.5163C11.6274 18.999 12.4895 18.1693 13.093 17.027C13.718 15.8848 14.0305 14.3653 14.0305 12.4687V11.8222C14.0305 10.0549 13.718 8.62166 13.093 7.5225C12.4679 6.42334 11.6166 5.62591 10.539 5.13021C9.48297 4.61296 8.28682 4.35433 6.95058 4.35433H3.8794V20.2598Z" fill="#1D2337"/>
</svg>